<?xml version="1.0" encoding="utf-8"?>
<!-- Generator: Adobe Illustrator 16.0.0, SVG Export Plug-In . SVG Version: 6.00 Build 0)  -->
<!DOCTYPE svg PUBLIC "-//W3C//DTD SVG 1.1//EN" "http://www.w3.org/Graphics/SVG/1.1/DTD/svg11.dtd">
<svg version="1.1" id="Layer_1" xmlns="http://www.w3.org/2000/svg" xmlns:xlink="http://www.w3.org/1999/xlink" x="0px" y="0px"
	 width="183px" height="63px" viewBox="0 0 183 63" enable-background="new 0 0 183 63" xml:space="preserve">
<path fill="#FFFFFF" d="M179.7,35.146c-2.149-2.195-4.354-2.78-5.933-2.854c-0.002-0.006-0.006-0.013-0.009-0.021
	c1.916-2.467,2.694-4.817,2.433-7.259c-0.291-2.693-1.896-4.966-4.42-6.289c-1.404-1.05-4.028-2.575-7.387-2.575
	c-2.395,0-4.688,0.798-6.629,2.303c-0.195,0.149-0.613,0.488-1.163,1.012c-1.774-0.926-3.71-1.074-4.765-1.074
	c-0.643,0-2.51,0.055-4.352,0.611c-1.147-0.411-2.453-0.618-3.902-0.618c-0.071,0-0.139,0-0.211,0.001
	c-1.557-1.822-4.092-2.854-7.204-2.854c-1.609,0-3.239,0.257-4.583,0.725l-2.234,0.774l-0.127,0.243
	c-1.377-0.658-3.117-1.2-5.117-1.2c-1.064,0-2.113,0.158-3.117,0.466c-2.045-2.89-5.719-3.211-7.24-3.211
	c-3.143,0-4.985,1.259-5.979,2.317c-0.547,0.582-0.976,1.242-1.271,1.952c-0.49-0.055-0.94-0.075-1.335-0.075
	c-1.37,0-3.938,0.246-5.987,1.86c-0.294,0.188-0.582,0.368-0.869,0.541c-2.261-2.785-5.354-4.472-8.458-4.472
	c-0.213,0-0.428,0.008-0.641,0.024c-0.132-1.232-0.407-2.411-0.825-3.517c-1.304-3.444-4.557-5.584-8.485-5.584
	c-0.974,0-3.712,0.162-5.812,1.83c-1.312-0.824-2.818-1.301-4.322-1.301c-1.709,0-3.403,0.563-4.911,1.587
	c-1.594-1.351-3.7-2.116-6.048-2.116c-0.975,0-3.715,0.162-5.813,1.83c-0.464-0.291-0.952-0.541-1.457-0.738
	c-0.098-0.544-0.237-1.062-0.417-1.551C49.747,2.21,46.406,0,42.17,0c-2.017,0-4.212,0.486-6.708,1.486l-1.488,0.597l-0.99,1.258
	c-2.464,3.138-4.14,8.705-5.974,16.636c-2.578,2.096-5.283,3.239-7.694,3.239c-2.49,0-4.582-1.252-6.397-3.829L8.21,12.704
	l-4.947,6.508c-3.423,4.502-4.195,9.481-2.119,13.657c1.479,2.975,4.142,5.091,7.61,6.15c-0.499,0.817-0.968,1.746-1.395,2.801
	c-1.202,3-0.896,6.189,0.838,8.75c2.082,3.068,6.082,4.9,10.699,4.9c2.63,0,5.288-0.562,7.798-1.639
	c5.357,4.302,11,8.167,16.632,8.167c2.817,0,5.387-0.979,7.445-2.845c0.93-0.854,1.961-2.1,3.452-7.022
	c0.278-0.92,0.505-1.737,0.683-2.469c0.423-0.226,0.839-0.489,1.248-0.792c1.358,1.303,3.1,2.015,4.978,2.015
	c1.748,0,3.426-0.61,4.979-1.809c0.255-0.198,0.521-0.423,0.8-0.673c1.441,1.441,3.313,2.23,5.314,2.23
	c2.05,0,3.952-0.773,5.755-2.35c0.125,0.105,0.251,0.21,0.382,0.308c1.161,0.95,2.529,1.503,3.983,1.614
	c0.926,0.232,1.874,0.352,2.821,0.352c3.319,0,6.525-1.428,9.277-4.08c1.283,2.041,3.136,3.543,5.402,4.377
	c0.84,0.321,1.728,0.482,2.643,0.482c3.104,0,6.273-1.955,9.6-5.945c2.486,4.445,6.587,4.822,7.895,4.822
	c1.869,0,3.756-0.595,5.526-1.717c1.541,1.66,3.414,2.32,5.005,2.32c1.744,0,3.467-0.623,5.258-1.903
	c0.016-0.009,0.027-0.021,0.041-0.029c0.892,0.404,1.865,0.617,2.881,0.617c1.51,0,2.931-0.474,4.149-1.104
	c1.093,0.67,2.353,1.026,3.685,1.026c1.996,0,4.772-0.651,6.814-2.454c1.824,2.35,4.447,3.678,7.456,3.678
	c2.808,0,5.222-1.127,7.063-2.416c2.088,1.811,4.152,2.213,5.576,2.213c2.062,0,4.045-0.846,5.584-2.383
	c1.859-1.855,3-4.637,2.976-7.258C181.982,38.616,181.164,36.607,179.7,35.146z"/>
<path fill="#FFFFFF" d="M43.327,61c-5.37,0-10.866-3.818-16.006-7.945l-0.468-0.378l-0.552,0.237
	c-2.409,1.033-4.899,1.559-7.404,1.559c-4.286,0-7.977-1.668-9.872-4.464C7.48,47.73,7.211,44.88,8.287,42.193
	c0.389-0.961,0.833-1.854,1.321-2.652l0.671-1.102l-1.233-0.375c-3.242-0.991-5.665-2.94-7.006-5.641
	c-1.901-3.823-1.165-8.417,2.02-12.606l4.12-5.42l3.922,5.566c2.016,2.862,4.376,4.253,7.215,4.253c2.66,0,5.538-1.198,8.325-3.463
	l0.266-0.216l0.077-0.334C29.73,12.651,31.382,7,33.771,3.958l0.824-1.047l1.24-0.497C38.21,1.463,40.283,1,42.17,1
	c3.798,0,6.789,1.966,8,5.259c0.16,0.435,0.285,0.9,0.372,1.383l0.099,0.551l0.521,0.204c0.434,0.169,0.868,0.389,1.29,0.654
	l0.6,0.375l0.553-0.44c1.882-1.496,4.449-1.612,5.191-1.612c2.083,0,3.951,0.65,5.402,1.879l0.58,0.491l0.628-0.426
	c1.363-0.925,2.867-1.415,4.349-1.415c1.284,0,2.595,0.397,3.791,1.147l0.6,0.377l0.554-0.44c1.884-1.497,4.449-1.613,5.19-1.613
	c3.503,0,6.396,1.892,7.55,4.938c0.384,1.016,0.642,2.116,0.766,3.27l0.104,0.966l0.968-0.076c0.187-0.015,0.376-0.021,0.563-0.021
	c2.767,0,5.566,1.495,7.683,4.102l0.547,0.675l0.744-0.448c0.295-0.178,0.592-0.362,0.894-0.555
	c1.897-1.489,4.224-1.703,5.448-1.703c0.404,0,0.816,0.023,1.224,0.068l0.746,0.083l0.288-0.692c0.252-0.604,0.613-1.16,1.077-1.652
	c0.856-0.914,2.463-2.002,5.249-2.002c1.339,0,4.645,0.271,6.425,2.789l0.418,0.59l0.69-0.212c0.914-0.28,1.863-0.422,2.824-0.422
	c1.579,0,3.156,0.371,4.687,1.102l0.87,0.416l0.392-0.747l1.858-0.645c1.242-0.432,2.753-0.669,4.256-0.669
	c2.775,0,5.064,0.889,6.443,2.504l0.303,0.354l0.669-0.004c1.327,0,2.526,0.188,3.565,0.56l0.311,0.111l0.314-0.095
	c1.748-0.528,3.551-0.569,4.062-0.569c0.919,0,2.699,0.125,4.302,0.96l0.636,0.331l0.519-0.495c0.545-0.52,0.937-0.831,1.08-0.94
	c1.771-1.374,3.852-2.097,6.021-2.097c3.143,0,5.602,1.488,6.787,2.375l0.062,0.048l0.072,0.037
	c2.219,1.163,3.637,3.171,3.891,5.511c0.234,2.199-0.473,4.277-2.229,6.539l-0.299,0.384l0.143,0.564l0.021,0.049l0.201,0.603
	l0.685,0.032c1.321,0.062,3.309,0.557,5.266,2.557c1.287,1.282,1.998,3.045,2.015,4.967c0.022,2.362-1.006,4.869-2.683,6.543
	c-1.351,1.349-3.082,2.091-4.877,2.091c-1.209,0-3.045-0.343-4.922-1.97l-0.59-0.512l-0.639,0.447
	c-2.118,1.482-4.303,2.234-6.49,2.234c-2.65,0-5.02-1.168-6.666-3.289l-0.652-0.842l-0.799,0.705
	c-1.842,1.625-4.387,2.203-6.154,2.203c-1.131,0-2.223-0.304-3.159-0.879l-0.481-0.295l-0.502,0.26
	c-1.271,0.658-2.513,0.992-3.689,0.992c-0.865,0-1.695-0.178-2.467-0.527l-0.525-0.238l-0.469,0.336
	c-1.657,1.185-3.188,1.746-4.719,1.746c-1.535,0-3.092-0.729-4.271-2.002l-0.564-0.608l-0.703,0.444
	c-1.611,1.021-3.338,1.562-4.992,1.562c-1.08,0-4.783-0.311-7.021-4.311l-0.71-1.271l-0.932,1.117
	c-3.133,3.759-6.021,5.586-8.831,5.586c-0.794,0-1.562-0.141-2.285-0.417c-2.058-0.757-3.752-2.13-4.913-3.977l-0.654-1.041
	l-0.887,0.854c-2.579,2.486-5.547,3.802-8.583,3.802c-0.86,0-1.728-0.108-2.578-0.322l-0.082-0.021l-0.084-0.007
	c-1.248-0.098-2.433-0.577-3.427-1.391c-0.152-0.115-0.262-0.207-0.372-0.301l-0.656-0.552l-0.646,0.564
	c-1.619,1.415-3.286,2.103-5.097,2.103c-1.722,0-3.358-0.688-4.607-1.938l-0.67-0.67l-0.706,0.633
	c-0.259,0.232-0.508,0.441-0.745,0.627c-1.374,1.061-2.844,1.598-4.366,1.598c-1.619,0-3.102-0.601-4.286-1.736l-0.609-0.584
	l-0.678,0.502c-0.372,0.274-0.749,0.516-1.122,0.713l-0.396,0.211l-0.106,0.437c-0.172,0.707-0.391,1.497-0.668,2.415
	c-1.418,4.684-2.345,5.816-3.171,6.576C48.234,60.105,45.892,61,43.327,61z"/>
<g>
	<path fill="#00AAFF" d="M45.212,18.524c2.132,3.485,5.854-0.387,5.854-3.213c0-1.354-1.434-2.438-2.403-2.438
		C46.607,12.873,43.854,16.473,45.212,18.524z"/>
	<path fill="#00AAFF" d="M116.169,20.112c-0.39-0.968-4.265-1.199-4.187,0c0.231,3.523-6.129,22.607-8.998,21.951
		c-1.01-0.231-0.037-6.813,2.678-12.351c2.984-3.793,2.984-5.032,2.363-5.381v-0.039c-1.859-1.237-4.575-0.851-5.271-0.115
		c-2.908,1.897-5.275,3.02-7.173,3.639c-1.05-5.148-6.089-8.71-8.455-4.606c-2.325,3.988,0,6.272,3.529,7.085
		c-1.667,8.789-4.575,12.271-6.125,11.499c-1.474-2.633-0.08-6.698,1.939-10.105c0.231-1.704-2.562-4.646-3.492-3.213
		c-0.326,0.499-0.622,1.024-0.893,1.569c-0.93,1.105-5.261,6.834-8.064,9.773c-0.812,1.199-1.55-1.01,1.552-9.098
		c6.668-5.033,8.877-12.232,7.211-16.647c-0.968-2.554-4.768-1.703-5.117-1.045c-2.764,5.521-5.221,12.259-6.63,18.061
		c-2.191,2.962-6.104,8.11-7.367,8.11c-0.234,0-0.428-0.233-0.428-0.696v-0.155c0.116-3.601,2.597-8.827,4.38-12.35
		c1.513-1.626,1.979-2.555,1.979-3.097c0-0.968-1.512-1.278-3.023-1.278c-0.932,0-1.902,0.117-2.483,0.271
		c-1.661,2.31-2.945,5.614-3.789,9.004c-1.591,2.012-5.024,6.45-7.378,8.922c-0.815,1.199-1.55-1.01,1.552-9.099
		c6.669-5.033,8.878-12.232,7.212-16.647c-0.97-2.554-4.77-1.703-5.119-1.045c-2.765,5.521-5.221,12.26-6.63,18.061
		c-2.188,2.965-6.102,8.11-7.367,8.11c-0.233,0-0.428-0.233-0.428-0.696v-0.156c0.117-3.6,2.598-8.826,4.383-12.349
		c1.512-1.626,1.977-2.555,1.977-3.097c0-0.968-1.513-1.278-3.024-1.278c-0.93,0-1.9,0.117-2.481,0.271
		c-5.546,7.704-6.902,26.52-1.629,22.455c1.922-1.479,5.279-6.037,7.821-9.722c-0.166,0.94-0.292,1.835-0.376,2.675
		c-0.504,5.072,1.163,10.762,5.622,4.84c1.442-1.922,3.486-5.02,5.125-7.568c-1.017,6.574-0.219,12.179,2.901,9.775
		c1.923-1.479,5.281-6.039,7.823-9.723c-0.165,0.939-0.294,1.836-0.378,2.676c-0.502,5.072,1.165,10.762,5.623,4.84
		c1.391-1.852,3.343-4.8,4.949-7.289c-0.763,3.933-0.254,7.733,1.605,9.069c0.348,0.312,0.658,0.388,1.124,0.312
		c5.816,2.166,11.478-5.848,12.563-13.708c1.742-0.192,3.449-0.695,4.729-1.431c-2.249,5.96-3.759,14.285,1.473,16.181
		C106.357,47.016,119.814,24.061,116.169,20.112z M80.922,18.021c0.582,1.781-0.271,5.613-4.186,9.756
		C77.976,24.796,79.374,21.428,80.922,18.021z M59.831,18.021c0.58,1.781-0.272,5.613-4.19,9.756
		C56.883,24.796,58.278,21.428,59.831,18.021z M89.88,26.113c0.699,0.193,0.969,1.044,1.008,2.051
		C88.755,27.584,88.755,25.803,89.88,26.113z"/>
	<path fill="#00AAFF" d="M49.245,46.126c-5.507,5.267-12.408,1.396-18.884-2.399c3.799-6.504,5.7-15.212,8.996-22.802
		C46.84,14.576,49.476,2.304,37.69,7.028c-1.977,2.515-3.684,9.059-5.274,16.143c-7.715,7.354-17.953,8.788-24.388-0.348
		c-7.33,9.64,6.126,16.956,23.69,4.104c-0.969,4.452-2.133,9.716-3.025,13.241c-0.231,0.812-0.543,1.508-0.93,2.09
		c-6.204-3.561-11.75-5.885-14.85,1.781c-2.094,5.225,7.211,7.855,14.422,2.593c6.36,5.263,14.774,12.312,19.389,8.13
		C47.693,53.87,50.136,45.275,49.245,46.126z M19.078,42.373c0.465-1.626,2.636-0.271,5.661,2.129
		C21.83,45.428,18.574,44.191,19.078,42.373z"/>
	<path fill="#00AAFF" d="M172.043,38.887c-1.125,1.122-2.018,3.137-0.621,4.491c1.049,1.083,2.248,1.587,3.373,0.462
		c1.124-1.121,1.746-3.443,0.66-4.488C174.407,38.266,173.166,37.764,172.043,38.887z"/>
	<path fill="#00AAFF" d="M168.592,23.829c-1.047-0.929-4.229-2.942-7.173-0.658c0,0-3.073,2.298-4.61,6.723
		c-1.744,2.1-5.254,6.358-7.681,8.724c0.504-3.216,2.015-7.279,3.294-10.183c1.436-1.587,1.979-2.479,1.9-3.02
		c-0.192-1.625-4.887-1.044-5.776-0.425c-0.542,0.387-1.007,1.394-1.435,2.788c-2.326,3.29-4.848,8.363-6.09,10.994
		c0.08-2.901,1.513-6.774,2.91-9.715c1.82-1.937,2.403-3.02,2.403-3.601c0-1.471-5.737-1.626-6.669,0.502
		c-2.83,3.33-6.129,12.271-6.941,14.402c-0.152-4.451,1.476-9.252,4.305-14.324c1.514-1.626,2.017-2.594,2.017-3.135
		c0-1.665-3.722-1.626-5.508-1.008c-2.118,4.03-3.419,7.412-4.181,10.236l-5.123,5.791c-3.607,4.063-4.848,1.782-4.385-2.011
		c13.264-8.75,10.354-11.421,8.455-12.157c-1.047-0.928-4.226-2.942-7.176-0.658c0,0-8.76,6.465-4.225,18.505
		c1.474,3.873,4.771,3.176,7.482,0c1.153-1.346,2.742-3.531,4.198-5.621c-0.114,0.908-0.165,1.737-0.165,2.483
		c0,5.228,1.783,6.39,2.096,6.39c1.084,0,2.827-1.627,2.752-1.627c1.356-2.671,2.791-5.574,4.071-8.322
		c-0.271,2.015-0.854,8.634,1.354,8.634c1.125,0,2.754-1.317,3.025-1.552c1.01-2.477,2.018-5.106,3.799-7.236
		c0,2.361-1.355,8.711,1.01,8.711c1.01,0,2.326-0.428,2.945-1.046c0.95-1.085,4.145-5.609,6.569-9.089
		c-0.254,2.386-0.005,5.171,1.147,8.353c2.793,7.704,12.564-1.354,11.517-5.497c-0.353-3.134-2.483-2.129-2.483-2.129
		c-0.115,5.381-7.6,11.497-6.086,1.936C173.4,27.235,170.491,24.564,168.592,23.829z M164.363,26.421
		c1.398-0.851,3.104,1.24-3.797,7.511C161.264,31.262,162.544,28.358,164.363,26.421z M124.08,26.345
		c1.395-0.852,3.1,1.239-3.803,7.51C120.977,31.184,122.258,28.28,124.08,26.345z"/>
	<path fill="#00AAFF" d="M179.7,35.146c-2.149-2.195-4.354-2.78-5.933-2.854c-0.002-0.006-0.006-0.013-0.009-0.021
		c1.916-2.467,2.694-4.817,2.433-7.259c-0.291-2.693-1.896-4.966-4.42-6.289c-1.404-1.05-4.028-2.575-7.387-2.575
		c-2.395,0-4.688,0.798-6.629,2.303c-0.195,0.149-0.613,0.488-1.163,1.012c-1.774-0.926-3.71-1.074-4.765-1.074
		c-0.643,0-2.51,0.055-4.352,0.611c-1.147-0.411-2.453-0.618-3.902-0.618c-0.071,0-0.139,0-0.211,0.001
		c-1.557-1.822-4.092-2.854-7.204-2.854c-1.609,0-3.239,0.257-4.583,0.725l-2.234,0.774l-0.127,0.243
		c-1.377-0.658-3.117-1.2-5.117-1.2c-1.064,0-2.113,0.158-3.117,0.466c-2.045-2.89-5.719-3.211-7.24-3.211
		c-3.143,0-4.985,1.259-5.979,2.317c-0.547,0.582-0.976,1.242-1.271,1.952c-0.49-0.055-0.94-0.075-1.335-0.075
		c-1.37,0-3.938,0.246-5.987,1.86c-0.294,0.188-0.582,0.368-0.869,0.541c-2.261-2.785-5.354-4.472-8.458-4.472
		c-0.213,0-0.428,0.008-0.641,0.024c-0.132-1.232-0.407-2.411-0.825-3.517c-1.304-3.444-4.557-5.584-8.485-5.584
		c-0.974,0-3.712,0.162-5.812,1.83c-1.312-0.824-2.818-1.301-4.322-1.301c-1.709,0-3.403,0.563-4.911,1.587
		c-1.594-1.351-3.7-2.116-6.048-2.116c-0.975,0-3.715,0.162-5.813,1.83c-0.464-0.291-0.952-0.541-1.457-0.738
		c-0.098-0.544-0.237-1.062-0.417-1.551C49.747,2.21,46.406,0,42.17,0c-2.017,0-4.212,0.486-6.708,1.486l-1.488,0.597l-0.99,1.258
		c-2.464,3.138-4.14,8.705-5.974,16.636c-2.578,2.096-5.283,3.239-7.694,3.239c-2.49,0-4.582-1.252-6.397-3.829L8.21,12.704
		l-4.947,6.508c-3.423,4.502-4.195,9.481-2.119,13.657c1.479,2.975,4.142,5.091,7.61,6.15c-0.499,0.817-0.968,1.746-1.395,2.801
		c-1.202,3-0.896,6.189,0.838,8.75c2.082,3.068,6.082,4.9,10.699,4.9c2.63,0,5.288-0.562,7.798-1.639
		c5.357,4.302,11,8.167,16.632,8.167c2.817,0,5.387-0.979,7.445-2.845c0.93-0.854,1.961-2.1,3.452-7.022
		c0.278-0.92,0.505-1.737,0.683-2.469c0.423-0.226,0.839-0.489,1.248-0.792c1.358,1.303,3.1,2.015,4.978,2.015
		c1.748,0,3.426-0.61,4.979-1.809c0.255-0.198,0.521-0.423,0.8-0.673c1.441,1.441,3.313,2.23,5.314,2.23
		c2.05,0,3.952-0.773,5.755-2.35c0.125,0.105,0.251,0.21,0.382,0.308c1.161,0.95,2.529,1.503,3.983,1.614
		c0.926,0.232,1.874,0.352,2.821,0.352c3.319,0,6.525-1.428,9.277-4.08c1.283,2.041,3.136,3.543,5.402,4.377
		c0.84,0.321,1.728,0.482,2.643,0.482c3.104,0,6.273-1.955,9.6-5.945c2.486,4.445,6.587,4.822,7.895,4.822
		c1.869,0,3.756-0.595,5.526-1.717c1.541,1.66,3.414,2.32,5.005,2.32c1.744,0,3.467-0.623,5.258-1.903
		c0.016-0.009,0.027-0.021,0.041-0.029c0.892,0.404,1.865,0.617,2.881,0.617c1.51,0,2.931-0.474,4.149-1.104
		c1.093,0.67,2.353,1.026,3.685,1.026c1.996,0,4.772-0.651,6.814-2.454c1.824,2.35,4.447,3.678,7.456,3.678
		c2.808,0,5.222-1.127,7.063-2.416c2.088,1.811,4.152,2.213,5.576,2.213c2.062,0,4.045-0.846,5.584-2.383
		c1.859-1.855,3-4.637,2.976-7.258C181.982,38.616,181.164,36.607,179.7,35.146z M176.747,45.792
		c-1.192,1.188-2.458,1.44-3.308,1.44c-1.402,0-2.74-0.645-3.978-1.912c-0.512-0.506-0.896-1.082-1.151-1.713
		c-1.89,2.002-4.619,3.826-7.511,3.826c-2.832,0-5.091-1.758-6.202-4.822c-0.207-0.563-0.391-1.127-0.547-1.688
		c-1.83,2.537-2.294,3.069-2.496,3.299l-0.062,0.068l-0.063,0.064c-1.281,1.283-3.386,1.854-4.9,1.854
		c-1.094,0-2.1-0.442-2.828-1.246c-0.184-0.198-0.342-0.414-0.479-0.644c-0.924,0.738-2.728,1.967-4.527,1.967
		c-1.104,0-2.125-0.469-2.866-1.321c-0.077-0.088-0.151-0.179-0.22-0.274c-0.363,0.565-0.946,1.063-1.713,1.61
		c-1.224,0.878-2.33,1.302-3.381,1.302c-1.271,0-3.164-0.957-4.17-4.054c-1.96,2.226-4.213,3.449-6.361,3.449
		c-1.195,0-4.139-0.429-5.658-4.424c-0.559-1.482-0.932-2.888-1.165-4.222c-3.022,4.828-7.062,9.77-10.67,9.77
		c-0.521,0-1.019-0.091-1.488-0.271c-1.955-0.719-3.461-2.117-4.351-4.047c-0.604-1.313-0.891-2.793-0.963-4.328
		c-0.438,0.812-0.916,1.582-1.431,2.299c-2.575,3.59-5.804,5.567-9.091,5.567c-0.778,0-1.556-0.11-2.315-0.333
		c-0.919-0.011-1.756-0.322-2.49-0.935c-0.975-0.738-1.672-1.755-2.147-2.931c-0.167,0.229-0.324,0.445-0.476,0.646
		c-1.838,2.442-3.64,3.629-5.514,3.629c-1.209,0-2.346-0.521-3.2-1.461c-0.734-0.81-1.2-1.858-1.496-2.962
		c-1.366,1.671-2.498,2.852-3.381,3.529c-0.981,0.757-1.998,1.143-3.017,1.143c-1.17,0-2.253-0.51-3.05-1.439
		c-0.599-0.693-1.004-1.617-1.268-2.662c-0.057,0.078-0.114,0.151-0.167,0.225c-1.519,2.018-3.014,3.175-4.542,3.52
		c-0.129,0.858-0.415,2.078-0.964,3.891c-1.359,4.496-2.163,5.232-2.549,5.588c-1.467,1.327-3.234,1.996-5.266,1.996
		c-5.18-0.001-10.956-4.438-16.199-8.75c-2.573,1.443-5.43,2.222-8.231,2.222c-3.547,0-6.55-1.304-8.032-3.489
		c-1.144-1.688-1.326-3.729-0.515-5.754c1.526-3.771,3.791-5.998,6.752-6.64c-0.972,0.133-1.924,0.201-2.85,0.201
		c-4.873,0-8.601-1.873-10.223-5.136c-1.513-3.042-0.857-6.791,1.799-10.284l2.283-3.004l2.173,3.085
		c2.429,3.447,5.467,5.194,9.032,5.194h0.001c3.459,0,7.197-1.664,10.594-4.702c1.789-7.863,3.445-13.653,5.607-16.403l0.457-0.582
		l0.686-0.275c2.108-0.845,3.911-1.255,5.509-1.255c2.869,0,5.025,1.388,5.916,3.807c0.324,0.881,0.449,1.939,0.378,3.105
		c0.067-0.003,0.131-0.01,0.199-0.01c1.84,0,3.845,1.269,4.716,3.17c0.24-0.505,0.481-1.004,0.725-1.492l0.029-0.056
		c1.085-2.047,4.075-2.15,4.664-2.15c2.595,0,4.643,1.312,5.474,3.508c0.049,0.126,0.09,0.257,0.132,0.388
		c1.153-1.759,3.136-3.367,5.353-3.367c1.841,0,3.846,1.269,4.715,3.17c0.242-0.506,0.482-1.005,0.727-1.493l0.029-0.056
		c1.085-2.047,4.074-2.15,4.664-2.15c2.595,0,4.643,1.312,5.477,3.508c0.79,2.093,0.932,4.689,0.321,7.436
		c1.112-1.199,2.569-1.866,4.153-1.866c2.901,0,5.772,2.255,7.382,5.506c1.195-0.575,2.478-1.305,3.838-2.184
		c1.336-1.123,3.279-1.253,4.096-1.253c1.019,0,2.475,0.176,3.891,0.957c0.137-0.702,0.191-1.177,0.182-1.401
		c-0.059-0.91,0.256-1.779,0.883-2.449c0.8-0.851,2.055-1.3,3.63-1.3c0.856,0,3.554,0.155,4.719,2.013
		c0.502,0.649,0.819,1.44,0.978,2.366c0.008-0.005,0.02-0.014,0.024-0.019c1.37-1.057,2.974-1.614,4.638-1.614
		c2.649,0,4.729,1.354,5.672,2.094c0.254,0.123,0.496,0.258,0.723,0.406c0.193-0.389,0.396-0.781,0.604-1.174l0.508-0.965
		l1.029-0.357c0.999-0.348,2.284-0.546,3.526-0.546c3.36,0,4.974,1.454,5.472,3.024c0.606-0.114,1.258-0.171,1.943-0.171
		c1.686,0,2.921,0.355,3.787,0.896c1.648-0.863,4.16-0.89,4.467-0.89c3.25,0,4.49,1.412,4.964,2.496
		c1.377-1.863,2.683-2.912,2.933-3.106c1.375-1.066,2.986-1.629,4.66-1.629c2.65,0,4.729,1.354,5.67,2.095
		c1.69,0.805,2.752,2.204,2.936,3.896c0.162,1.533-0.219,3.583-3.354,6.718c0.873,0.714,1.563,1.88,1.795,3.631
		c0.016,0.081,0.024,0.163,0.037,0.242c0.729-0.352,1.415-0.446,1.944-0.446c0.976,0,2.458,0.332,3.999,1.91
		c0.871,0.858,1.355,2.073,1.369,3.425C178.796,42.596,177.998,44.543,176.747,45.792z"/>
	<path fill="#00AAFF" d="M72.161,15.312c0-1.354-1.435-2.438-2.404-2.438c-2.056,0-4.808,3.6-3.451,5.651
		C68.438,22.009,72.161,18.138,72.161,15.312z"/>
	<path fill="#FFFFFF" d="M80.922,18.021c-1.548,3.407-2.946,6.774-4.186,9.756C80.652,23.635,81.504,19.802,80.922,18.021z"/>
	<path fill="#FFFFFF" d="M59.831,18.021c-1.553,3.407-2.948,6.774-4.19,9.756C59.559,23.635,60.411,19.802,59.831,18.021z"/>
	<path fill="#FFFFFF" d="M89.88,26.113c-1.125-0.31-1.125,1.471,1.008,2.051C90.849,27.158,90.579,26.306,89.88,26.113z"/>
	<path fill="#FFFFFF" d="M19.078,42.373c-0.504,1.818,2.752,3.057,5.661,2.129C21.714,42.102,19.543,40.747,19.078,42.373z"/>
	<path fill="#FFFFFF" d="M124.08,26.345c-1.822,1.935-3.104,4.838-3.803,7.51C127.18,27.584,125.475,25.493,124.08,26.345z"/>
	<path fill="#FFFFFF" d="M164.363,26.421c-1.819,1.937-3.1,4.84-3.797,7.511C167.468,27.661,165.764,25.57,164.363,26.421z"/>
</g>
</svg>
